<svg xmlns="http://www.w3.org/2000/svg" viewBox="0 0 176.75 176.74">
  <defs>
    <style>
      .purple {
        fill: #867ff7;
      }
    </style>
  </defs>
  <path class="purple" d="M173.57,58.36h-83C76,58.36,63,68.08,59.58,82.2a31.82,31.82,0,0,0,31.11,39.66c17.55-.17,31.44-15,31.44-32.58v-15h39.22c9.1,46.41-25.9,87.74-70.15,88.24A72.43,72.43,0,0,1,18,89.29C18.44,45,59.77,10,106.18,19.13V50.39h15.95V6.91C60.69-13.91,2.65,31.08,2,89.11a88.35,88.35,0,0,0,88.35,89.37h1C149.4,177.83,194.4,119.79,173.57,58.36ZM106.18,90.11A15.81,15.81,0,1,1,90.37,74.3h15.81Z" transform="translate(-2 -1.74)"/>
</svg>
