<svg xmlns="http://www.w3.org/2000/svg" viewBox="0 0 713.72 176.77">
  <defs>
    <style>
      .purple-dark {
        fill: #2e0f8b;
      }
      .purple {
        fill: #867ff7;
      }
    </style>
  </defs>
  <g class="purple-dark">
    <path d="M329.69,89.66c-1.4.13-2.64.29-3.73.47a28.49,28.49,0,0,0-4.07,1.09,5.51,5.51,0,0,0-3.66,2.91,10.65,10.65,0,0,0-.88,4.28V109.6q0,3.39.06,5.46c0,1.38.12,3.09.21,5.12q-6.78,4.08-20.05,7.67a93.63,93.63,0,0,1-24.38,3.6,59.13,59.13,0,0,1-19.61-3.2,45.36,45.36,0,0,1-16.08-9.57A44.21,44.21,0,0,1,226.61,103a54.63,54.63,0,0,1-4-21.45,56.84,56.84,0,0,1,3.73-20.84,46.3,46.3,0,0,1,10.78-16.49A47.28,47.28,0,0,1,254,33.63a62.14,62.14,0,0,1,22-3.74,54,54,0,0,1,15.2,2,67.72,67.72,0,0,1,11.53,4.34L307,32.54h5.9l.61,35.14h-6q-5.16-15.84-12.35-23.52A23.8,23.8,0,0,0,277,36.47q-13,0-20.11,11.41t-7.09,31.43q0,21.25,7,33.27t19.71,12a29.27,29.27,0,0,0,10.62-1.79,22.67,22.67,0,0,0,7.22-4.18V99.09A8.68,8.68,0,0,0,293.4,95a7.21,7.21,0,0,0-3.53-2.88,22.88,22.88,0,0,0-5.08-1.56c-2-.41-3.74-.7-5.09-.88V84.37h50Z" transform="translate(0.01 -0.03)"/>
    <path d="M401.46,73.92A13.91,13.91,0,0,1,398.28,83a10.34,10.34,0,0,1-8.42,3.9,13.84,13.84,0,0,1-8.37-2.5A8.53,8.53,0,0,1,378.06,77a15.34,15.34,0,0,1,.34-3.68c.22-.87.43-1.7.61-2.46A14.33,14.33,0,0,0,372.43,73a21.59,21.59,0,0,0-6.11,5.38v37.24a9.06,9.06,0,0,0,.75,3.93,5.24,5.24,0,0,0,2.51,2.45,17.92,17.92,0,0,0,4.85,1.25c2.24.34,3.86.53,4.85.58v5H333.9v-5c1.13-.09,2.27-.22,3.42-.38a16.11,16.11,0,0,0,3-.64,5,5,0,0,0,3-2.31,8.82,8.82,0,0,0,.81-4.07V77a8.34,8.34,0,0,0-1.15-4.37,9.93,9.93,0,0,0-2.78-3.09,11.41,11.41,0,0,0-3.09-1.36,21.39,21.39,0,0,0-4.1-.74V62.46l32.36-1.77,1,1v9.84h.28A40.07,40.07,0,0,1,376.53,63a21.34,21.34,0,0,1,11-3.08,13.56,13.56,0,0,1,10.14,3.9A13.73,13.73,0,0,1,401.46,73.92Z" transform="translate(0.01 -0.03)"/>
    <path d="M483.68,127.38a51.49,51.49,0,0,1-7,2.37,33.33,33.33,0,0,1-8.6,1.08q-8.32,0-12.25-2.47a12.39,12.39,0,0,1-5.35-7.09H450a43.19,43.19,0,0,1-4.46,3.93A25.13,25.13,0,0,1,441,128a34.36,34.36,0,0,1-6.15,2.23,35.28,35.28,0,0,1-8.26.75,20.32,20.32,0,0,1-13.45-4.65A15.3,15.3,0,0,1,407.57,114a20.55,20.55,0,0,1,1.22-7.51,17.09,17.09,0,0,1,3.47-5.47,18,18,0,0,1,4.72-3.6,51.87,51.87,0,0,1,5.88-2.65q6.11-2.25,14.67-4.65A83,83,0,0,0,450,85.79V79.28c0-1.13-.1-2.62-.28-4.48a14.45,14.45,0,0,0-1.15-4.68A8.53,8.53,0,0,0,440.26,65a12.87,12.87,0,0,0-5,.85,17.49,17.49,0,0,0-3.23,1.73,26.2,26.2,0,0,0,1.16,4.14,16.67,16.67,0,0,1,1,5.36,8.9,8.9,0,0,1-.61,2.88,6.43,6.43,0,0,1-1.77,2.75,11.45,11.45,0,0,1-3.5,2.1,17.65,17.65,0,0,1-6,.75q-5.71,0-8.64-2.75a9.69,9.69,0,0,1,.1-14,24.61,24.61,0,0,1,7.36-5A42.18,42.18,0,0,1,431,60.66a52.28,52.28,0,0,1,10.32-1.12,86.21,86.21,0,0,1,12.07.78,28.48,28.48,0,0,1,9.9,3.22A17.22,17.22,0,0,1,470,70.43q2.48,4.5,2.47,11.77,0,7.67-.3,18.18t-.31,13.83a10.54,10.54,0,0,0,.92,4.82,5.85,5.85,0,0,0,2.81,2.65,10.13,10.13,0,0,0,3.63.64c1.65.07,3.16.1,4.51.1ZM450,92q-3.82,1.29-7.56,3a30.3,30.3,0,0,0-6.13,3.5,13.26,13.26,0,0,0-4,4.86,15.94,15.94,0,0,0-1.43,7q0,5.31,2.42,7.69a8.19,8.19,0,0,0,6,2.38,11.34,11.34,0,0,0,6.16-1.53,17.57,17.57,0,0,0,4.25-3.78Z" transform="translate(0.01 -0.03)"/>
    <path d="M565.56,66.46a15.34,15.34,0,0,0-5.93,2.3,13.66,13.66,0,0,0-4.79,5.7q-5.83,12.35-12,26.29T529.13,130.9A87.72,87.72,0,0,1,521,145.42a46.63,46.63,0,0,1-7.39,8.34,23.2,23.2,0,0,1-6.45,3.94,17.93,17.93,0,0,1-6.44,1.22q-6.45,0-10.41-3.6a10.67,10.67,0,0,1-4-8.07,13.23,13.23,0,0,1,.44-3.53,9.44,9.44,0,0,1,1.86-3.39,8.44,8.44,0,0,1,3.36-2.54,12,12,0,0,1,5.12-1,11.76,11.76,0,0,1,7.25,2.64,42.9,42.9,0,0,1,7.19,7.33,62.57,62.57,0,0,0,5.52-6.7,32.68,32.68,0,0,0,4.85-9.15q-8.07-17-14.3-29.38t-14-27.76a12.84,12.84,0,0,0-4.54-5.06,14.64,14.64,0,0,0-6-2.2V61.51h41.52v4.95a19.37,19.37,0,0,0-5.31,1c-2,.63-3,1.44-3,2.44a3.79,3.79,0,0,0,.2,1.18,16.92,16.92,0,0,0,.74,1.87q2.31,4.73,6.54,13.16t9.86,19.72q4.2-9.61,7.15-16.54t5.72-13.63a10.92,10.92,0,0,0,.78-2.68c.07-.65.1-1.09.1-1.32a2.68,2.68,0,0,0-1.18-2.14A12.35,12.35,0,0,0,543.37,68a21.15,21.15,0,0,0-3.25-1c-1-.22-1.9-.38-2.58-.47V61.51h28Z" transform="translate(0.01 -0.03)"/>
    <path d="M605.72,131a46.64,46.64,0,0,1-16.65-2.75,32.82,32.82,0,0,1-11.91-7.49,30.72,30.72,0,0,1-7-11.4A43.2,43.2,0,0,1,567.87,95a33,33,0,0,1,2.81-13.44,35.35,35.35,0,0,1,20-19.09,43.2,43.2,0,0,1,16.25-3q12.48,0,19.74,4.71T633.87,77a11.65,11.65,0,0,1-2.57,7.87q-2.58,3-8.89,3a14.27,14.27,0,0,1-8.51-2.45A7.47,7.47,0,0,1,610.47,79a20.49,20.49,0,0,1,1.09-6.58,27.29,27.29,0,0,0,1.28-5A5.13,5.13,0,0,0,611,65.61a7.67,7.67,0,0,0-3.6-.65,11,11,0,0,0-5.56,1.43,13.58,13.58,0,0,0-4.68,5,29,29,0,0,0-3.36,9.09,64.39,64.39,0,0,0-1.26,13.7q0,12.08,5.67,19.47t13.53,7.4q7.53,0,12-3.36a30.25,30.25,0,0,0,7.91-9.53l5.09,3.53a38.85,38.85,0,0,1-5,7.56,31.93,31.93,0,0,1-7,6.07,36.36,36.36,0,0,1-8.69,4.21A33.34,33.34,0,0,1,605.72,131Z" transform="translate(0.01 -0.03)"/>
    <path d="M713.72,112.59a41.74,41.74,0,0,1-5.73,7.29,35,35,0,0,1-7.64,5.87,41.63,41.63,0,0,1-9.19,3.9A39.2,39.2,0,0,1,680.48,131a47.52,47.52,0,0,1-17.33-2.85,34,34,0,0,1-12-7.66A30.7,30.7,0,0,1,644,109.09a41.9,41.9,0,0,1-2.35-14.21,35.23,35.23,0,0,1,2.55-13.26,35.74,35.74,0,0,1,7.22-11.3,34.68,34.68,0,0,1,11.64-7.8,39.73,39.73,0,0,1,15.7-3q9.5,0,15.6,2.3a27.72,27.72,0,0,1,10.11,6.38,23,23,0,0,1,5.63,9.13,34.29,34.29,0,0,1,1.77,11v4.41H666q0,13.91,5.36,21.16t17,7.26a19.76,19.76,0,0,0,11.46-3.49,32.67,32.67,0,0,0,8.68-8.85ZM687.8,86.81c0-2.71-.13-5.5-.4-8.35a27.67,27.67,0,0,0-1.43-7,10.79,10.79,0,0,0-3.15-4.82A7.8,7.8,0,0,0,677.76,65q-5.22,0-8.34,5.29T666,87.08Z" transform="translate(0.01 -0.03)"/>
  </g>
  <path class="purple" d="M171.6,56.6h-83c-14.6,0-27.6,9.7-31,23.8a31.9,31.9,0,0,0,31.1,39.7c17.6-.2,31.4-15,31.4-32.6v-15h39.2c9.1,46.4-25.9,87.7-70.2,88.2A72.47,72.47,0,0,1,15.9,89V87.4c.4-44.3,41.8-79.3,88.2-70.2V48.5H120V5.2C58.7-15.6.6,29.3,0,87.4a88.35,88.35,0,0,0,87.3,89.4h2C147.4,176.1,192.4,118.1,171.6,56.6ZM104.2,88.4A15.8,15.8,0,1,1,88.4,72.6h15.8Z" transform="translate(0.01 -0.03)"/>
</svg>
